# Blender 4.0.1
# www.blender.org
o Mesh_0
v -31.141720 83.480347 -1.205219
v 83.480232 -1.205334 -31.142023
v 83.480453 -1.205334 31.141409
v -82.735283 0.000000 33.092293
v 51.593880 50.388359 52.338436
v 50.388550 52.338627 51.593506
v -31.141712 83.480347 1.205448
v 83.480232 1.205334 -31.142023
v -83.480453 -1.205334 -31.141409
v -51.593880 -50.388359 -52.338436
v -1.205640 31.141716 -83.480331
v -1.205640 -31.141716 -83.480331
v 1.205027 31.141716 -83.480354
v -83.480453 1.205334 -31.141409
v -83.480232 1.205334 31.142023
v -50.388168 -52.338627 51.593876
v 31.141712 83.480347 -1.205448
v -50.388550 52.338627 -51.593506
v 50.388168 52.338627 -51.593876
v -0.000304 33.091988 -82.735405
v 82.735527 0.000000 33.091686
v 52.338810 -51.593689 50.388168
v 83.480453 1.205334 31.141409
v 52.338440 -51.593689 -50.388550
v 51.593502 -50.388359 -52.338818
v 82.735283 0.000000 -33.092293
v 33.091988 -82.735405 -0.000122
v -1.205027 -31.141716 83.480354
v -1.205027 31.141716 83.480354
v -52.338440 -51.593689 50.388550
v -51.593502 -50.388359 52.338818
v -51.593502 50.388359 52.338818
v -52.338440 51.593689 50.388550
v 0.000304 33.091988 82.735405
v 52.338810 51.593689 50.388168
v 1.205640 -31.141716 83.480331
v -33.091988 82.735405 0.000122
v -50.388168 52.338627 51.593876
v 51.593502 50.388359 -52.338818
v -52.338810 -51.593689 -50.388168
v -33.091988 -82.735405 0.000122
v -83.480232 -1.205334 31.142023
v -50.388550 -52.338627 -51.593506
v -0.000304 -33.091988 -82.735405
v 50.388168 -52.338627 -51.593876
v 31.141720 -83.480347 1.205219
v -31.141720 -83.480347 -1.205219
v 1.205027 -31.141716 -83.480354
v -52.338810 51.593689 -50.388168
v -31.141712 -83.480347 1.205448
v 31.141720 83.480347 1.205219
v 33.091988 82.735405 -0.000122
v 31.141712 -83.480347 -1.205448
v 1.205640 31.141716 83.480331
v 0.000304 -33.091988 82.735405
v -82.735527 0.000000 -33.091686
v -51.593880 50.388359 -52.338436
v 52.338440 51.593689 -50.388550
v 51.593880 -50.388359 52.338436
v 50.388550 -52.338627 51.593506
vn 0.5305 0.0177 0.8475
vn 0.5128 0.0109 0.8584
vn 0.5128 -0.0110 0.8584
vn 0.8407 -0.5415 -0.0000
vn 0.8584 -0.5128 -0.0109
vn 0.8584 -0.5128 0.0110
vn -0.5128 0.0110 -0.8584
vn -0.5306 -0.0177 -0.8475
vn -0.5415 -0.0000 -0.8407
vn -0.8584 0.5128 0.0110
vn -0.8475 0.5306 0.0177
vn -0.8407 0.5415 -0.0000
vn -0.8475 -0.5305 -0.0177
vn -0.8475 -0.5305 0.0178
vn -0.8584 -0.5128 0.0110
vn -0.0177 0.8475 0.5305
vn 0.0177 0.8475 0.5305
vn 0.0110 0.8584 0.5128
vn 0.8584 0.5128 0.0110
vn 0.8475 0.5306 -0.0177
vn 0.8407 0.5415 -0.0000
vn -0.0109 -0.8584 0.5128
vn 0.0110 -0.8584 0.5128
vn 0.0178 -0.8475 0.5305
vn 0.0177 0.8475 -0.5305
vn -0.0177 0.8475 -0.5305
vn -0.0110 0.8584 -0.5128
vn 0.5415 -0.0000 -0.8407
vn 0.5128 -0.0110 -0.8584
vn 0.5128 0.0110 -0.8584
vn -0.0177 -0.8475 -0.5306
vn 0.0177 -0.8475 -0.5305
vn 0.0110 -0.8584 -0.5128
vn -0.0110 -0.8584 -0.5128
vn -0.0000 0.8407 0.5415
vn -0.5128 -0.0110 0.8584
vn -0.0177 -0.8475 0.5306
vn -0.0000 -0.8407 0.5415
vn 0.8475 0.5306 0.0177
vn -0.0109 0.8584 0.5128
vn -0.5415 -0.0000 0.8407
vn 0.5305 0.0177 -0.8475
vn -0.8407 -0.5415 -0.0000
vn -0.8584 -0.5128 -0.0110
vn -0.8584 0.5128 -0.0109
vn 0.5305 -0.0177 -0.8475
vn 0.8475 -0.5305 -0.0177
vn -0.5128 0.0110 0.8584
vn 0.5306 -0.0177 0.8475
vn -0.8475 0.5305 -0.0178
vn -0.0000 -0.8407 -0.5415
vn -0.5128 -0.0110 -0.8584
vn 0.5415 -0.0000 0.8407
vn 0.8475 -0.5306 0.0177
vn -0.5305 0.0178 -0.8475
vn -0.0000 0.8407 -0.5415
vn 0.8584 0.5128 -0.0110
vn 0.0110 0.8584 -0.5128
vn -0.5305 0.0177 0.8475
vn -0.5305 -0.0177 0.8475
vt 0.124792 0.499368
vt 0.001947 0.410116
vt 0.048870 0.265703
vt 0.875106 0.499153
vt 0.799184 0.265488
vt 0.951029 0.265488
vt 0.997878 0.659563
vt 0.752188 0.659563
vt 0.799111 0.515150
vt 0.247830 0.659939
vt 0.124985 0.749191
vt 0.002140 0.659939
vt 0.125052 0.248694
vt 0.049130 0.015029
vt 0.200974 0.015029
vt 0.375540 0.499094
vt 0.299618 0.265429
vt 0.451462 0.265429
vt 0.799165 0.765496
vt 0.997932 0.909909
vt 0.875087 0.999161
vt 0.625342 0.499041
vt 0.502497 0.409789
vt 0.549420 0.265376
vt 0.299420 0.515492
vt 0.498187 0.659905
vt 0.375343 0.749157
vt 0.747835 0.910132
vt 0.502145 0.910132
vt 0.549068 0.765719
vt 0.549110 0.515576
vt 0.747877 0.659988
vt 0.625033 0.749240
vt 0.183321 0.990712
vt 0.187517 0.882315
vt 0.187517 0.990712
vt 0.103867 0.764171
vt 0.099671 0.872569
vt 0.099671 0.764171
vt 0.103867 0.990711
vt 0.099671 0.882315
vt 0.103867 0.882315
vt 0.034158 0.764171
vt 0.029963 0.872570
vt 0.029963 0.764171
vt 0.113613 0.764171
vt 0.117808 0.872569
vt 0.113613 0.872569
vt 0.113613 0.990712
vt 0.117808 0.882315
vt 0.117808 0.990712
vt 0.211204 0.764171
vt 0.215400 0.872568
vt 0.211204 0.872568
vt 0.173575 0.872569
vt 0.169379 0.764171
vt 0.173575 0.764171
vt 0.229342 0.872568
vt 0.225146 0.764171
vt 0.229342 0.764171
vt 0.057846 0.872569
vt 0.062042 0.764171
vt 0.062042 0.872569
vt 0.075983 0.882315
vt 0.071788 0.990712
vt 0.071788 0.882315
vt 0.243283 0.882314
vt 0.239088 0.990711
vt 0.239088 0.882314
vt 0.048100 0.764171
vt 0.043904 0.872569
vt 0.043904 0.764171
vt 0.187517 0.872569
vt 0.183321 0.764171
vt 0.187517 0.764171
vt 0.016021 0.764171
vt 0.020217 0.872570
vt 0.016021 0.872570
vt 0.020217 0.882316
vt 0.016021 0.990713
vt 0.016021 0.882316
vt 0.127554 0.764171
vt 0.131750 0.872569
vt 0.127554 0.872569
vt 0.155438 0.872569
vt 0.159633 0.764171
vt 0.159633 0.872569
vt 0.085729 0.872569
vt 0.089925 0.764171
vt 0.089925 0.872569
vt 0.141496 0.764171
vt 0.145692 0.872569
vt 0.141496 0.872569
vt 0.029963 0.990712
vt 0.034158 0.882316
vt 0.034158 0.990712
vt 0.145692 0.882315
vt 0.141496 0.990712
vt 0.141496 0.882315
vt 0.075983 0.764171
vt 0.071788 0.872569
vt 0.071788 0.764171
vt 0.239088 0.872568
vt 0.243283 0.764171
vt 0.243283 0.872568
vt 0.201458 0.882315
vt 0.197263 0.990711
vt 0.197263 0.882315
vt 0.197263 0.764171
vt 0.201458 0.872569
vt 0.197263 0.872569
vt 0.225146 0.882314
vt 0.229342 0.990711
vt 0.225146 0.990711
vt 0.057846 0.990712
vt 0.062042 0.882315
vt 0.062042 0.990712
vt 0.169380 0.990711
vt 0.173575 0.882315
vt 0.173575 0.990711
vt 0.044466 0.926238
vt 0.048100 0.924140
vt 0.048100 0.928336
vt 0.086291 0.912296
vt 0.089925 0.910198
vt 0.089925 0.914394
vt 0.131750 0.896257
vt 0.131750 0.900452
vt 0.128116 0.898355
vt 0.131750 0.924140
vt 0.131750 0.928336
vt 0.128116 0.926238
vt 0.048100 0.952023
vt 0.048100 0.956219
vt 0.044466 0.954121
vt 0.131750 0.914394
vt 0.128116 0.912296
vt 0.131750 0.910198
vt 0.131750 0.882315
vt 0.131750 0.886511
vt 0.128116 0.884413
vt 0.089925 0.896257
vt 0.089925 0.900452
vt 0.086291 0.898355
vt 0.048100 0.886511
vt 0.044466 0.884413
vt 0.048100 0.882315
vt 0.048100 0.914394
vt 0.044467 0.912296
vt 0.048100 0.910198
vt 0.086292 0.884413
vt 0.089925 0.882315
vt 0.089925 0.886511
vt 0.044466 0.898355
vt 0.048100 0.896257
vt 0.048100 0.900452
vt 0.086291 0.926238
vt 0.089925 0.924140
vt 0.089925 0.928336
vt 0.214838 0.882315
vt 0.214838 0.886510
vt 0.211205 0.884413
vt 0.044466 0.940179
vt 0.048100 0.938082
vt 0.048100 0.942277
vt 0.086291 0.954121
vt 0.089925 0.952023
vt 0.089925 0.956219
vt 0.214838 0.900452
vt 0.211205 0.898354
vt 0.214838 0.896257
vt 0.089925 0.938082
vt 0.089925 0.942277
vt 0.086291 0.940179
vt 0.131750 0.938082
vt 0.131750 0.942277
vt 0.128116 0.940180
vt 0.128116 0.954121
vt 0.131750 0.952023
vt 0.131750 0.956219
vt 0.155438 0.990712
vt 0.159633 0.882315
vt 0.159633 0.990712
vt 0.299147 0.015221
vt 0.497914 0.159634
vt 0.375069 0.248886
vt 0.200714 0.265703
vt 0.247637 0.410116
vt 0.997951 0.409901
vt 0.752262 0.409901
vt 0.950955 0.515150
vt 0.875033 0.748815
vt 0.049063 0.515526
vt 0.200907 0.515526
vt 0.247897 0.159442
vt 0.002207 0.159442
vt 0.498385 0.409842
vt 0.252695 0.409842
vt 0.752242 0.909909
vt 0.951009 0.765496
vt 0.701264 0.265376
vt 0.748187 0.409789
vt 0.252498 0.659905
vt 0.451265 0.515492
vt 0.700912 0.765719
vt 0.624990 0.999384
vt 0.502188 0.659988
vt 0.700955 0.515576
vt 0.183321 0.882315
vt 0.103867 0.872569
vt 0.099671 0.990711
vt 0.034158 0.872570
vt 0.117808 0.764171
vt 0.113613 0.882315
vt 0.215400 0.764171
vt 0.169379 0.872569
vt 0.225146 0.872568
vt 0.057846 0.764171
vt 0.075983 0.990712
vt 0.243283 0.990711
vt 0.048100 0.872569
vt 0.183321 0.872569
vt 0.020217 0.764171
vt 0.020217 0.990713
vt 0.131750 0.764171
vt 0.155438 0.764171
vt 0.085729 0.764171
vt 0.145692 0.764171
vt 0.029963 0.882316
vt 0.145692 0.990712
vt 0.075983 0.872569
vt 0.239088 0.764171
vt 0.201458 0.990711
vt 0.201458 0.764171
vt 0.229342 0.882314
vt 0.057846 0.882315
vt 0.169379 0.882315
vt 0.155438 0.882315
vt 0.252225 0.159634
vt 0.450992 0.015221
s 1
f 5/1/1 54/2/2 36/3/3
f 27/4/4 2/5/5 3/6/6
f 11/7/7 10/8/8 56/9/9
f 15/10/10 33/11/11 37/12/12
f 40/13/13 30/14/14 42/15/15
f 38/16/16 6/17/17 51/18/18
f 23/19/19 58/20/20 52/21/21
f 50/22/22 46/23/23 60/24/24
f 19/25/25 18/26/26 1/27/27
f 26/28/28 48/29/29 13/30/30
f 43/31/31 45/32/32 53/33/33
f 47/34/34 46/35/23 50/36/22
f 38/37/16 37/38/12 33/39/11
f 34/40/35 5/41/1 6/42/17
f 28/43/36 16/44/37 55/45/38
f 52/46/21 6/47/17 35/48/39
f 40/49/13 56/50/9 10/51/8
f 51/52/18 1/53/27 7/54/40
f 30/55/14 4/56/41 42/57/15
f 13/58/30 19/59/25 39/60/42
f 41/61/43 43/62/31 47/63/34
f 9/64/44 15/65/10 14/66/45
f 45/67/32 48/68/29 25/69/46
f 58/70/20 26/71/28 39/72/42
f 26/73/28 24/74/47 25/75/46
f 38/76/16 29/77/48 34/78/35
f 59/79/49 55/80/38 60/81/24
f 49/82/50 56/83/9 14/84/45
f 44/85/51 10/86/8 12/87/52
f 27/88/4 60/89/24 46/90/23
f 35/91/39 21/92/53 23/93/19
f 4/94/41 33/95/11 15/96/10
f 22/97/54 21/98/53 59/99/49
f 19/100/25 52/101/21 58/102/20
f 12/103/52 13/104/30 48/105/29
f 24/106/47 53/107/33 45/108/32
f 37/109/12 18/110/26 49/111/50
f 57/112/55 20/113/56 11/114/7
f 3/115/6 8/116/57 23/117/19
f 30/118/14 50/119/22 16/120/37
f 1/121/27 37/122/12 7/123/40
f 41/124/43 47/125/34 50/126/22
f 17/127/58 51/128/18 52/129/21
f 27/130/4 46/131/23 53/132/33
f 20/133/56 13/134/30 11/135/7
f 44/136/51 12/137/52 48/138/29
f 29/139/48 54/140/2 34/141/35
f 28/142/36 55/143/38 36/144/3
f 9/145/44 14/146/45 56/147/9
f 2/148/5 26/149/28 8/150/57
f 4/151/41 15/152/10 42/153/15
f 3/154/6 23/155/19 21/156/53
f 18/157/26 57/158/55 49/159/50
f 40/160/13 10/161/8 43/162/31
f 19/163/25 58/164/20 39/165/42
f 24/166/47 45/167/32 25/168/46
f 32/169/59 38/170/16 33/171/11
f 31/172/60 30/173/14 16/174/37
f 5/175/1 35/176/39 6/177/17
f 22/178/54 59/179/49 60/180/24
f 29/181/48 36/182/3 54/183/2
f 4/184/41 28/185/36 29/186/48
f 59/187/49 21/188/53 36/3/3
f 21/188/53 5/1/1 36/3/3
f 3/6/6 22/189/54 27/4/4
f 27/4/4 24/190/47 2/5/5
f 56/9/9 57/191/55 11/7/7
f 11/7/7 12/192/52 10/8/8
f 49/193/50 14/194/45 37/12/12
f 14/194/45 15/10/10 37/12/12
f 42/15/15 9/195/44 40/13/13
f 40/13/13 41/196/43 30/14/14
f 51/18/18 7/197/40 38/16/16
f 38/16/16 34/198/35 6/17/17
f 52/21/21 35/199/39 23/19/19
f 23/19/19 8/200/57 58/20/20
f 55/201/38 16/202/37 60/24/24
f 16/202/37 50/22/22 60/24/24
f 1/27/27 17/203/58 19/25/25
f 19/25/25 20/204/56 18/26/26
f 13/30/30 39/205/42 26/28/28
f 26/28/28 25/206/46 48/29/29
f 53/33/33 47/207/34 43/31/31
f 43/31/31 44/208/51 45/32/32
f 47/34/34 53/209/33 46/35/23
f 38/37/16 7/210/40 37/38/12
f 34/40/35 54/211/2 5/41/1
f 28/43/36 31/212/60 16/44/37
f 52/46/21 51/213/18 6/47/17
f 40/49/13 9/214/44 56/50/9
f 51/52/18 17/215/58 1/53/27
f 30/55/14 31/216/60 4/56/41
f 13/58/30 20/217/56 19/59/25
f 41/61/43 40/218/13 43/62/31
f 9/64/44 42/219/15 15/65/10
f 45/67/32 44/220/51 48/68/29
f 58/70/20 8/221/57 26/71/28
f 26/73/28 2/222/5 24/74/47
f 38/76/16 32/223/59 29/77/48
f 59/79/49 36/224/3 55/80/38
f 49/82/50 57/225/55 56/83/9
f 44/85/51 43/226/31 10/86/8
f 27/88/4 22/227/54 60/89/24
f 35/91/39 5/228/1 21/92/53
f 4/94/41 32/229/59 33/95/11
f 22/97/54 3/230/6 21/98/53
f 19/100/25 17/231/58 52/101/21
f 12/103/52 11/232/7 13/104/30
f 24/106/47 27/233/4 53/107/33
f 37/109/12 1/234/27 18/110/26
f 57/112/55 18/235/26 20/113/56
f 3/115/6 2/236/5 8/116/57
f 30/118/14 41/237/43 50/119/22
f 29/181/48 28/238/36 36/182/3
f 29/186/48 32/239/59 4/184/41
f 4/184/41 31/240/60 28/185/36
