# Blender 4.0.1
# www.blender.org
o Mesh_0
v -67.640755 -67.640999 65.788063
v 67.641243 65.787819 67.640747
v 65.788063 67.640999 67.640755
v -67.641235 67.640999 -65.787567
v -67.640747 -65.787819 67.641243
v 67.641235 67.640999 65.787567
v 67.640755 -67.640999 -65.788063
v 67.640747 -65.787819 -67.641243
v 65.787567 -67.640999 -67.641235
v -65.787567 -67.640999 67.641235
v -65.788063 67.640999 -67.640755
v -67.641243 65.787819 -67.640747
vn -0.5564 0.5875 0.5875
vn -0.5875 0.5875 0.5564
vn -0.5875 0.5564 0.5875
vn 0.5564 0.5875 -0.5875
vn 0.5875 0.5875 -0.5564
vn 0.5875 0.5564 -0.5875
vn -0.5875 -0.5564 -0.5875
vn -0.5564 -0.5875 -0.5875
vn -0.5875 -0.5876 -0.5564
vn 0.5875 -0.5564 0.5875
vn 0.5564 -0.5875 0.5875
vn 0.5875 -0.5876 0.5564
vt 0.125026 0.750020
vt 0.002193 0.537268
vt 0.247858 0.537268
vt 0.252103 0.537305
vt 0.497769 0.537305
vt 0.374936 0.750057
vt 0.747906 0.787187
vt 0.625074 0.999939
vt 0.502241 0.787187
vt 0.625192 0.749971
vt 0.502359 0.537218
vt 0.748024 0.537218
vt 0.142734 0.876914
vt 0.205175 0.772994
vt 0.144562 0.877979
vt 0.021508 0.876915
vt 0.142726 0.879030
vt 0.021500 0.879031
vt 0.207678 0.766328
vt 0.011545 0.874830
vt 0.207187 0.761876
vt 0.203339 0.984015
vt 0.205175 0.982964
vt 0.015252 0.877897
vt 0.207284 0.993502
vt 0.011642 0.880548
vt 0.208086 0.988758
vt 0.212187 0.990559
vt 0.212187 0.764651
vt 0.203347 0.771930
s 1
f 3/1/1 4/2/2 5/3/3
f 11/4/4 6/5/5 8/6/6
f 12/7/7 9/8/8 1/9/9
f 2/10/10 10/11/11 7/12/12
f 8/13/6 2/14/10 7/15/12
f 11/16/4 9/17/8 12/18/7
f 5/19/3 12/20/7 1/21/9
f 1/22/9 7/15/12 10/23/11
f 4/24/2 6/25/5 11/26/4
f 4/24/2 11/26/4 12/20/7
f 3/27/1 2/28/10 6/25/5
f 5/19/3 1/21/9 10/29/11
f 8/13/6 7/15/12 9/17/8
f 3/27/1 10/29/11 2/28/10
f 8/13/6 6/30/5 2/14/10
f 11/16/4 8/13/6 9/17/8
f 5/19/3 4/24/2 12/20/7
f 1/22/9 9/17/8 7/15/12
f 4/24/2 3/27/1 6/25/5
f 3/27/1 5/19/3 10/29/11
